<?xml version="1.0" encoding="UTF-8" standalone="no"?>
<svg
   enable-background="new 0 0 24 24"
   height="1024"
   viewBox="0 0 1024 1024"
   width="1024"
   fill="#ffffff"
   version="1.1"
   id="svg8"
   xmlns="http://www.w3.org/2000/svg"
   xmlns:svg="http://www.w3.org/2000/svg">
  <defs
     id="defs12" />
  <g
     id="g21"
     transform="translate(-1,-1)">
    <rect
       style="fill:#333333;stroke-width:2.87491"
       id="rect668"
       width="1026"
       height="1026"
       x="0"
       y="0" />
  </g>
  <rect
     fill="none"
     height="24"
     width="24"
     id="rect2"
     x="0"
     y="0" />
  <g
     id="g6"
     transform="matrix(25,0,0,25,212,212)">
    <path
       d="M 4,13 C 5.1,13 6,12.1 6,11 6,9.9 5.1,9 4,9 2.9,9 2,9.9 2,11 c 0,1.1 0.9,2 2,2 z m 1.13,1.1 C 4.76,14.04 4.39,14 4,14 3.01,14 2.07,14.21 1.22,14.58 0.48,14.9 0,15.62 0,16.43 V 18 h 4.5 v -1.61 c 0,-0.83 0.23,-1.61 0.63,-2.29 z M 20,13 c 1.1,0 2,-0.9 2,-2 0,-1.1 -0.9,-2 -2,-2 -1.1,0 -2,0.9 -2,2 0,1.1 0.9,2 2,2 z m 4,3.43 C 24,15.62 23.52,14.9 22.78,14.58 21.93,14.21 20.99,14 20,14 c -0.39,0 -0.76,0.04 -1.13,0.1 0.4,0.68 0.63,1.46 0.63,2.29 V 18 H 24 Z m -7.76,-2.78 c -1.17,-0.52 -2.61,-0.9 -4.24,-0.9 -1.63,0 -3.07,0.39 -4.24,0.9 C 6.68,14.13 6,15.21 6,16.39 V 18 h 12 v -1.61 c 0,-1.18 -0.68,-2.26 -1.76,-2.74 z M 8.07,16 c 0.09,-0.23 0.13,-0.39 0.91,-0.69 0.97,-0.38 1.99,-0.56 3.02,-0.56 1.03,0 2.05,0.18 3.02,0.56 0.77,0.3 0.81,0.46 0.91,0.69 z M 12,8 c 0.55,0 1,0.45 1,1 0,0.55 -0.45,1 -1,1 -0.55,0 -1,-0.45 -1,-1 0,-0.55 0.45,-1 1,-1 m 0,-2 c -1.66,0 -3,1.34 -3,3 0,1.66 1.34,3 3,3 1.66,0 3,-1.34 3,-3 0,-1.66 -1.34,-3 -3,-3 z"
       id="path4" />
  </g>
</svg>
