<?xml version="1.0" encoding="UTF-8" standalone="no"?>
<svg
   enable-background="new 0 0 24 24"
   height="1024"
   viewBox="0 0 1024 1024"
   width="1024"
   fill="#ffffff"
   version="1.1"
   id="svg22"
   xmlns="http://www.w3.org/2000/svg"
   xmlns:svg="http://www.w3.org/2000/svg">
  <defs
     id="defs26" />
  <g
     id="g21"
     transform="translate(-1,-1)">
    <rect
       style="fill:#333333;stroke-width:2.87491"
       id="rect668"
       width="1026"
       height="1026"
       x="0"
       y="0" />
  </g>
  <g
     id="g6">
    <rect
       fill="none"
       height="24"
       width="24"
       id="rect2"
       x="0"
       y="0" />
    <rect
       fill="none"
       height="24"
       width="24"
       id="rect4"
       x="0"
       y="0" />
  </g>
  <g
     id="g20"
     transform="matrix(25,0,0,25,212,212)">
    <g
       id="g18">
      <polygon
         points="20,7 20,9 18,9 18,11 20,11 20,13 22,13 22,11 24,11 24,9 22,9 22,7 "
         id="polygon8" />
      <path
         d="m 8,12 c 2.21,0 4,-1.79 4,-4 C 12,5.79 10.21,4 8,4 5.79,4 4,5.79 4,8 c 0,2.21 1.79,4 4,4 z M 8,6 c 1.1,0 2,0.9 2,2 0,1.1 -0.9,2 -2,2 C 6.9,10 6,9.1 6,8 6,6.9 6.9,6 8,6 Z"
         id="path10" />
      <path
         d="m 8,13 c -2.67,0 -8,1.34 -8,4 v 3 h 16 v -3 c 0,-2.66 -5.33,-4 -8,-4 z m 6,5 H 2 V 17.01 C 2.2,16.29 5.3,15 8,15 c 2.7,0 5.8,1.29 6,2 z"
         id="path12" />
      <path
         d="M 12.51,4.05 C 13.43,5.11 14,6.49 14,8 14,9.51 13.43,10.89 12.51,11.95 14.47,11.7 16,10.04 16,8 16,5.96 14.47,4.3 12.51,4.05 Z"
         id="path14" />
      <path
         d="M 16.53,13.83 C 17.42,14.66 18,15.7 18,17 v 3 h 2 v -3 c 0,-1.45 -1.59,-2.51 -3.47,-3.17 z"
         id="path16" />
    </g>
  </g>
</svg>
