<?xml version="1.0" encoding="UTF-8" standalone="no"?>
<svg
   height="1024"
   viewBox="0 0 1024 1024"
   width="1024"
   fill="#ffffff"
   version="1.1"
   id="svg6"
   xmlns="http://www.w3.org/2000/svg"
   xmlns:svg="http://www.w3.org/2000/svg">
  <defs
     id="defs10" />
  <circle
     cx="512"
     cy="512"
     fill="#333333"
     id="circle2"
     style="stroke-width:11.25"
     r="450" />
  <path
     d="M 0,0 H 24 V 24 H 0 Z"
     fill="none"
     id="path2" />
  <path
     d="m 437,555.75 c -58.5,0 -175,29.25 -175,87.5 V 687 H 612 V 643.25 C 612,585 495.5,555.75 437,555.75 Z M 320.5,637 c 21,-14.5 71.75,-31.25 116.5,-31.25 44.75,0 95.5,16.75 116.5,31.25 z M 437,512 c 48.25,0 87.5,-39.25 87.5,-87.5 0,-48.25 -39.25,-87.5 -87.5,-87.5 -48.25,0 -87.5,39.25 -87.5,87.5 0,48.25 39.25,87.5 87.5,87.5 z m 0,-125 c 20.75,0 37.5,16.75 37.5,37.5 0,20.75 -16.75,37.5 -37.5,37.5 -20.75,0 -37.5,-16.75 -37.5,-37.5 0,-20.75 16.75,-37.5 37.5,-37.5 z m 176,170.25 c 29,21 49,49 49,86 V 687 h 100 v -43.75 c 0,-50.5 -87.5,-79.25 -149,-86 z M 587,512 c 48.25,0 87.5,-39.25 87.5,-87.5 0,-48.25 -39.25,-87.5 -87.5,-87.5 -13.5,0 -26,3.25 -37.5,8.75 15.75,22.25 25,49.5 25,78.75 0,29.25 -9.25,56.5 -25,78.75 11.5,5.5 24,8.75 37.5,8.75 z"
     id="path4"
     style="stroke-width:25" />
</svg>
