<?xml version="1.0" encoding="UTF-8" standalone="no"?>
<svg
   enable-background="new 0 0 24 24"
   height="1024"
   viewBox="0 0 1024 1024"
   width="1024"
   fill="#ffffff"
   version="1.1"
   id="svg10"
   xmlns="http://www.w3.org/2000/svg"
   xmlns:svg="http://www.w3.org/2000/svg">
  <defs
     id="defs14" />
  <circle
     cx="512"
     cy="512"
     fill="#333333"
     id="circle2"
     style="stroke-width:11.25"
     r="450" />
  <g
     id="g4">
    <rect
       fill="none"
       height="24"
       width="24"
       id="rect2"
       x="0"
       y="0" />
  </g>
  <g
     id="g8"
     transform="matrix(25,0,0,25,212,212)">
    <path
       d="M 20,9 V 6 h -2 v 3 h -3 v 2 h 3 v 3 h 2 v -3 h 3 V 9 Z M 9,12 c 2.21,0 4,-1.79 4,-4 C 13,5.79 11.21,4 9,4 6.79,4 5,5.79 5,8 c 0,2.21 1.79,4 4,4 z M 9,6 c 1.1,0 2,0.9 2,2 0,1.1 -0.9,2 -2,2 C 7.9,10 7,9.1 7,8 7,6.9 7.9,6 9,6 Z m 6.39,8.56 C 13.71,13.7 11.53,13 9,13 6.47,13 4.29,13.7 2.61,14.56 1.61,15.07 1,16.1 1,17.22 V 20 H 17 V 17.22 C 17,16.1 16.39,15.07 15.39,14.56 Z M 15,18 H 3 V 17.22 C 3,16.84 3.2,16.5 3.52,16.34 4.71,15.73 6.63,15 9,15 c 2.37,0 4.29,0.73 5.48,1.34 0.32,0.16 0.52,0.5 0.52,0.88 z"
       id="path6" />
  </g>
</svg>
