<?xml version="1.0" encoding="UTF-8" standalone="no"?>
<svg
   height="1024"
   viewBox="0 0 1024 1024"
   width="1024"
   fill="#ffffff"
   version="1.1"
   id="svg6"
   xmlns="http://www.w3.org/2000/svg"
   xmlns:svg="http://www.w3.org/2000/svg">
  <defs
     id="defs10" />
  <g
     id="g21"
     transform="translate(-1,-1)">
    <rect
       style="fill:#333333;stroke-width:2.87491"
       id="rect668"
       width="1026"
       height="1026"
       x="0"
       y="0" />
  </g>
  <path
     d="M 0,0 H 24 V 24 H 0 Z"
     fill="none"
     id="path2" />
  <path
     d="m 565.5,512 c 0,-27.5 -22.5,-50 -50,-50 -27.5,0 -50,22.5 -50,50 0,27.5 22.5,50 50,50 27.5,0 50,-22.5 50,-50 z m -50,-225 c -124.25,0 -225,100.75 -225,225 h -75 l 100,100 100,-100 h -75 c 0,-96.75 78.25,-175 175,-175 96.75,0 175,78.25 175,175 0,96.75 -78.25,175 -175,175 -37.75,0 -72.75,-12.25 -101.5,-32.5 l -35.5,36 c 38,29 85.5,46.5 137,46.5 124.25,0 225,-100.75 225,-225 0,-124.25 -100.75,-225 -225,-225 z"
     id="path4"
     style="stroke-width:25" />
</svg>
