<?xml version="1.0" encoding="UTF-8" standalone="no"?>
<!-- Generator: Adobe Illustrator 21.0.2, SVG Export Plug-In . SVG Version: 6.00 Build 0)  -->

<svg
   version="1.1"
   id="Layer_1"
   x="0px"
   y="0px"
   viewBox="0 0 662 170"
   xml:space="preserve"
   sodipodi:docname="Workbox-Logo-Grey.svg"
   width="662"
   height="170"
   inkscape:version="1.1.1 (3bf5ae0d25, 2021-09-20)"
   xmlns:inkscape="http://www.inkscape.org/namespaces/inkscape"
   xmlns:sodipodi="http://sodipodi.sourceforge.net/DTD/sodipodi-0.dtd"
   xmlns="http://www.w3.org/2000/svg"
   xmlns:svg="http://www.w3.org/2000/svg"><defs
   id="defs33" /><sodipodi:namedview
   id="namedview31"
   pagecolor="#505050"
   bordercolor="#ffffff"
   borderopacity="1"
   inkscape:pageshadow="0"
   inkscape:pageopacity="0"
   inkscape:pagecheckerboard="1"
   showgrid="false"
   inkscape:zoom="1.9392523"
   inkscape:cx="302.43614"
   inkscape:cy="74.771084"
   inkscape:window-width="1920"
   inkscape:window-height="1011"
   inkscape:window-x="0"
   inkscape:window-y="0"
   inkscape:window-maximized="1"
   inkscape:current-layer="Layer_1" />
<style
   type="text/css"
   id="style2">
	.st0{fill:#616161;}
	.st1{fill:#F57C00;}
</style>
<g
   id="g28"
   transform="translate(10,10)">
	<polygon
   class="st0"
   points="23.6,105 17.1,103 16.6,27.5 1,35 1,115 72.7,149.5 72.7,0.5 51.9,10.5 51.1,113 43.2,110.6 42.8,15 24.6,23.7 "
   id="polygon4" />
	<g
   id="g10">
		<path
   class="st1"
   d="m 81.7,3.3 v 66.8 l 92.5,1.6 V 31.8 Z m 20.7,33 56.7,10.9 v 6.4 l -56.7,-7 z"
   id="path6" />
		<path
   class="st1"
   d="m 81.7,79.9 v 66.9 l 92.5,-28.6 V 78.3 Z m 20.7,23 56.7,-6.6 v 6.4 l -56.7,10.5 z"
   id="path8" />
	</g>
	<g
   id="g26">
		<path
   class="st0"
   d="M 362.1,58.9 C 359.4,56.3 355,55 348.8,55 H 333 c -6.2,0 -10.6,1.3 -13.2,3.9 -2.7,2.6 -4,6.3 -4,11.2 v 30.5 c 0,4.9 1.3,8.6 4,11.2 2.7,2.6 7.1,3.9 13.2,3.9 h 15.9 c 6.2,0 10.6,-1.3 13.3,-3.9 2.7,-2.6 4,-6.3 4,-11.2 V 70.1 c -0.1,-4.9 -1.4,-8.6 -4.1,-11.2 z m -16.3,39.7 c 0,1.8 -1,2.7 -3,2.7 H 339 c -2,0 -3,-0.9 -3,-2.7 V 72 c 0,-1.8 1,-2.7 3,-2.7 h 3.7 c 2,0 3,0.9 3,2.7 v 26.6 z"
   id="path12" />
		<path
   class="st0"
   d="m 408.7,54.4 h 1.8 v 18 h -6.9 c -5.1,0 -7.7,2.8 -7.7,8.3 v 35 H 375.2 V 55 h 20.3 v 9.4 c 0.7,-3.1 2.1,-5.5 4.4,-7.3 2.3,-1.8 5.3,-2.7 8.8,-2.7 z"
   id="path14" />
		<path
   class="st0"
   d="M 437.4,115.7 H 416.7 V 34.3 h 20.7 V 82.6 L 448.8,55 h 21.4 l -13,29.9 13,30.8 H 448.7 L 437.4,87.4 Z"
   id="path16" />
		<path
   class="st0"
   d="m 506.5,55 h 3.3 c 10.8,0 16.2,5 16.2,15.1 v 30.5 c 0,10 -5.4,15.1 -16.2,15.1 h -3.3 c -6.2,0 -9.9,-2.6 -11.1,-7.8 v 7.8 H 475.1 V 34.3 h 20.7 v 27.2 c 1.6,-4.3 5.1,-6.5 10.7,-6.5 z m -1.2,42.8 V 72.9 c 0,-1.8 -1,-2.7 -3,-2.7 h -3.1 c -2.2,0 -3.3,1.2 -3.3,3.7 v 23 c 0,2.4 1.1,3.7 3.3,3.7 h 3.1 c 2,-0.1 3,-1 3,-2.8 z"
   id="path18" />
		<path
   class="st0"
   d="m 551.8,55 h 15.8 c 6.2,0 10.6,1.3 13.3,3.9 2.7,2.6 4,6.3 4,11.2 v 30.5 c 0,4.9 -1.3,8.6 -4,11.2 -2.7,2.6 -7.1,3.9 -13.3,3.9 h -15.8 c -6.2,0 -10.6,-1.3 -13.2,-3.9 -2.7,-2.6 -4,-6.3 -4,-11.2 V 70.1 c 0,-4.9 1.3,-8.6 4,-11.2 2.7,-2.6 7.1,-3.9 13.2,-3.9 z m 12.8,43.6 V 72 c 0,-1.8 -1,-2.7 -3,-2.7 H 558 c -2,0 -3,0.9 -3,2.7 v 26.6 c 0,1.8 1,2.7 3,2.7 h 3.6 c 2,0 3,-0.9 3,-2.7 z"
   id="path20" />
		<path
   class="st0"
   d="m 625.9,84.3 15.1,31.4 h -20.9 l -6.6,-18 -6,18 H 587.3 L 601.2,84.7 586.7,55 h 21.6 l 5.2,16.9 5.2,-16.9 h 20.5 z"
   id="path22" />
		<path
   class="st0"
   d="m 306,100.6 v -63 h -20.7 v 60.2 c 0,1.8 -1,2.7 -3,2.7 H 278 c -2,0 -3,-0.9 -3,-2.7 V 37.6 h -20.1 v 60.2 c 0,1.8 -1,2.7 -3,2.7 h -4.3 c -2,0 -3,-0.9 -3,-2.7 V 37.6 h -20.7 v 63 c 0,4.9 1.3,8.6 4,11.2 2.7,2.6 7.1,3.9 13.3,3.9 h 3.4 9.2 c 4.2,0 8.3,-1.4 11.2,-4.6 2.9,3.2 7,4.6 11.2,4.6 h 9.2 3.4 c 6.2,0 10.6,-1.3 13.3,-3.9 2.6,-2.6 3.9,-6.3 3.9,-11.2 z"
   id="path24" />
	</g>
</g>
</svg>
